<?xml version="1.0" encoding="UTF-8"?>
<svg version="1.1" xmlns="http://www.w3.org/2000/svg" width="980" height="980">
<path d="M0 0 C1.90716545 -0.01058945 1.90716545 -0.01058945 3.8528595 -0.02139282 C7.93706841 -0.04092884 12.02121749 -0.04608509 16.10546875 -0.046875 C16.80170097 -0.04716957 17.4979332 -0.04746414 18.21526337 -0.04776764 C39.05367791 -0.04919242 59.63433834 0.15646578 80.29296875 3.203125 C80.98406738 3.30258423 81.67516602 3.40204346 82.38720703 3.5045166 C156.69960496 14.21074981 226.80805282 39.85951053 289.41796875 81.453125 C290.2551091 82.00861023 290.2551091 82.00861023 291.10916138 82.57531738 C299.04796417 87.85952652 306.72153215 93.40761821 314.29296875 99.203125 C314.96183105 99.71343262 315.63069336 100.22374023 316.31982422 100.74951172 C322.82066039 105.740333 329.18720114 110.8795223 335.41796875 116.203125 C335.93085449 116.64052002 336.44374023 117.07791504 336.97216797 117.52856445 C347.26451648 126.40901796 357.05872658 135.78228084 366.66674805 145.39160156 C368.48402863 147.20668057 370.30920708 149.01356407 372.13476562 150.8203125 C378.99110519 157.64419993 385.27794044 164.61940242 391.29296875 172.203125 C392.28746773 173.36747615 393.29015548 174.52493707 394.3046875 175.671875 C420.80141796 205.63356252 441.41650682 240.59581141 459.29296875 276.203125 C459.72738281 277.06260742 460.16179688 277.92208984 460.609375 278.80761719 C490.10551451 337.53219198 507.25259133 407.20434299 507.49609375 472.91015625 C507.50315338 474.18159988 507.51021301 475.45304352 507.51748657 476.76301575 C507.53702259 480.84722466 507.54217884 484.93137374 507.54296875 489.015625 C507.54341061 490.05997334 507.54341061 490.05997334 507.54386139 491.12541962 C507.54528617 511.96383416 507.33962797 532.54449459 504.29296875 553.203125 C504.19350952 553.89422363 504.09405029 554.58532227 503.99157715 555.29736328 C499.42626317 586.9853923 492.43838136 617.80152794 482.29296875 648.203125 C481.93477051 649.27900879 481.57657227 650.35489258 481.20751953 651.46337891 C461.765962 709.14741435 430.36652849 763.3854631 390.29296875 809.203125 C389.66261719 809.93273437 389.03226563 810.66234375 388.3828125 811.4140625 C386.6987006 813.35520286 384.99697696 815.27943629 383.29296875 817.203125 C382.69186279 817.88906738 382.09075684 818.57500977 381.47143555 819.28173828 C375.39520368 826.13902351 369.00621197 832.64342888 362.51782227 839.10864258 C360.72620925 840.8948717 358.9400382 842.68641847 357.15429688 844.47851562 C351.37003202 850.26639232 345.55764623 855.93027045 339.29296875 861.203125 C338.32875 862.04875 337.36453125 862.894375 336.37109375 863.765625 C326.72182722 872.08211991 316.54939814 879.65598184 306.29296875 887.203125 C305.66277832 887.67105469 305.03258789 888.13898437 304.38330078 888.62109375 C230.82700449 943.18496547 139.51637138 974.72438958 34.5859375 980.40625 C33.31449387 980.41330963 32.04305023 980.42036926 30.733078 980.42764282 C26.64886909 980.44717884 22.56472001 980.45233509 18.48046875 980.453125 C17.78423653 980.45341957 17.0880043 980.45371414 16.37067413 980.45401764 C-4.46774041 980.45544242 -25.04840084 980.24978422 -45.70703125 977.203125 C-46.39812988 977.10366577 -47.08922852 977.00420654 -47.80126953 976.9017334 C-79.48929855 972.33641942 -110.30543419 965.34853761 -140.70703125 955.203125 C-141.78291504 954.84492676 -142.85879883 954.48672852 -143.96728516 954.11767578 C-183.29050121 940.86436295 -220.32362919 921.88454555 -254.83203125 898.953125 C-255.38994354 898.58289215 -255.94785583 898.2126593 -256.52267456 897.83120728 C-264.46167845 892.54691296 -272.13542371 886.99876263 -279.70703125 881.203125 C-280.37589355 880.69281738 -281.04475586 880.18250977 -281.73388672 879.65673828 C-288.21094096 874.68417487 -294.55800501 869.56564873 -300.76953125 864.265625 C-301.27403809 863.83660889 -301.77854492 863.40759277 -302.29833984 862.96557617 C-312.7474391 853.95879734 -322.67928524 844.39842117 -332.41162109 834.62890625 C-334.09879083 832.93631153 -335.79133321 831.24921903 -337.484375 829.5625 C-343.10493388 823.94573828 -348.58688944 818.28675295 -353.70703125 812.203125 C-354.61922665 811.1466473 -355.53196189 810.0906354 -356.4453125 809.03515625 C-371.96186255 790.83440786 -386.04794659 771.49357276 -398.70703125 751.203125 C-399.40795898 750.08744141 -399.40795898 750.08744141 -400.12304688 748.94921875 C-409.17097478 734.4774315 -417.05247312 719.4498921 -424.70703125 704.203125 C-425.35865234 702.91390137 -425.35865234 702.91390137 -426.0234375 701.59863281 C-455.51957701 642.87405802 -472.66665383 573.20190701 -472.91015625 507.49609375 C-472.91721588 506.22465012 -472.92427551 504.95320648 -472.93154907 503.64323425 C-472.95108509 499.55902534 -472.95624134 495.47487626 -472.95703125 491.390625 C-472.95732582 490.69439278 -472.95762039 489.99816055 -472.95792389 489.28083038 C-472.95934867 468.44241584 -472.75369047 447.86175541 -469.70703125 427.203125 C-469.55784241 426.16647705 -469.55784241 426.16647705 -469.40563965 425.10888672 C-464.84032567 393.4208577 -457.85244386 362.60472206 -447.70703125 332.203125 C-447.34883301 331.12724121 -446.99063477 330.05135742 -446.62158203 328.94287109 C-433.3682692 289.61965504 -414.3884518 252.58652706 -391.45703125 218.078125 C-390.90168198 217.24125656 -390.90168198 217.24125656 -390.33511353 216.38748169 C-385.05081921 208.4484778 -379.50266888 200.77473254 -373.70703125 193.203125 C-373.19672363 192.5342627 -372.68641602 191.86540039 -372.16064453 191.17626953 C-367.16982325 184.67543336 -362.03063395 178.30889261 -356.70703125 172.078125 C-356.26963623 171.56523926 -355.83224121 171.05235352 -355.3815918 170.52392578 C-346.50113829 160.23157727 -337.12787541 150.43736717 -327.51855469 140.8293457 C-325.70347568 139.01206512 -323.89659218 137.18688667 -322.08984375 135.36132812 C-315.26595632 128.50498856 -308.29075383 122.21815331 -300.70703125 116.203125 C-299.5426801 115.20862602 -298.38521918 114.20593827 -297.23828125 113.19140625 C-267.26990681 86.68876218 -232.30987818 66.10296101 -196.70703125 48.203125 C-195.86350098 47.77402832 -195.0199707 47.34493164 -194.15087891 46.90283203 C-135.54893584 17.22229812 -65.67287535 0.24338036 0 0 Z M63.671875 188.14453125 C57.61327335 196.75601549 56.16769652 207.84323639 57.7265625 218.0390625 C60.01911056 229.11733824 65.03175126 237.33309575 74.375 243.765625 C82.47121491 247.75412177 90.27477866 248.66007193 99.20703125 248.71484375 C100.30268402 248.73279495 101.39833679 248.75074615 102.52719116 248.76924133 C105.99074576 248.82297042 109.45416554 248.85711987 112.91796875 248.890625 C115.28126861 248.92383106 117.64455077 248.95832372 120.0078125 248.99414062 C125.76941022 249.07867501 131.53102623 249.14718148 137.29296875 249.203125 C135.71357586 250.96337016 134.13114494 252.7207155 132.546875 254.4765625 C131.22538452 255.94488525 131.22538452 255.94488525 129.87719727 257.44287109 C127.16395541 260.34092611 124.32173997 262.9103154 121.2890625 265.4609375 C119.01504887 267.44569304 116.91076351 269.55274878 114.79296875 271.703125 C110.78580963 275.7511735 106.63323524 279.51799308 102.29296875 283.203125 C101.32488281 284.03714844 100.35679687 284.87117188 99.359375 285.73046875 C92.46402074 291.64875279 85.42606394 297.34475817 78.15820312 302.80175781 C76.84974751 303.78481216 75.54398417 304.77145536 74.24023438 305.76074219 C56.7074357 319.04768406 38.36612758 331.23403392 19.29296875 342.203125 C18.64714844 342.57679199 18.00132812 342.95045898 17.3359375 343.33544922 C-47.10684118 380.43933398 -122.6821346 406.0955838 -197.62109375 406.37890625 C-200.03516515 406.40208529 -202.44922771 406.42620181 -204.86328125 406.45117188 C-208.60650792 406.48631377 -212.34940142 406.51568702 -216.09277344 406.52905273 C-219.74843678 406.54459959 -223.40317729 406.58481731 -227.05859375 406.62890625 C-228.16409576 406.62699783 -229.26959778 406.62508942 -230.40859985 406.62312317 C-240.63047779 406.78239775 -249.49304391 409.05843784 -256.9921875 416.296875 C-264.38481585 424.51464866 -267.35262102 434.44425462 -266.9921875 445.4453125 C-265.81760368 456.80498613 -261.30828013 466.53405348 -253.0234375 474.41015625 C-246.15114064 479.72952263 -238.20459434 482.29678045 -229.58251953 482.36425781 C-228.58066116 482.37371429 -227.5788028 482.38317078 -226.54658508 482.39291382 C-225.46773544 482.39731476 -224.3888858 482.4017157 -223.27734375 482.40625 C-222.14753586 482.41330963 -221.01772797 482.42036926 -219.85368347 482.42764282 C-184.1767824 482.6107286 -184.1767824 482.6107286 -148.70703125 479.203125 C-147.67334412 479.05393616 -147.67334412 479.05393616 -146.61877441 478.9017334 C-86.9778274 470.26752099 -30.61904338 452.08489615 23.29296875 425.203125 C24.74050537 424.48237793 24.74050537 424.48237793 26.21728516 423.74707031 C65.82738638 403.88486712 102.25642562 378.70996515 136.47705078 350.68261719 C138.05141758 349.39992523 139.63793111 348.13216962 141.2265625 346.8671875 C148.08365509 341.38558897 154.4553646 335.46134164 160.8359375 329.44140625 C164.01219831 326.44982171 167.27088058 323.57169629 170.58203125 320.73046875 C173.12124212 318.46373028 175.48593943 316.03553215 177.84765625 313.5859375 C179.29296875 312.203125 179.29296875 312.203125 181.29296875 311.203125 C181.2840863 311.76751785 181.27520386 312.33191071 181.26605225 312.91340637 C181.17694115 318.83531473 181.11697263 324.75702988 181.07324219 330.67944336 C181.05323789 332.88394926 181.02602553 335.08840286 180.99121094 337.29272461 C180.94219817 340.47783383 180.91988748 343.66223616 180.90234375 346.84765625 C180.88169861 347.81894974 180.86105347 348.79024323 180.83978271 349.79096985 C180.83656862 359.79253851 183.77986992 368.49924788 190.25390625 376.19921875 C197.75515115 383.57113184 207.76779507 387.11893344 218.16796875 387.640625 C230.03447787 387.20602355 239.57743368 382.42936234 247.54296875 373.890625 C253.48452147 366.57296334 255.4063282 358.49255149 255.43341064 349.19839478 C255.43912079 348.01845947 255.44483093 346.83852417 255.45071411 345.62283325 C255.45183197 344.34173676 255.45294983 343.06064026 255.45410156 341.74072266 C255.45873527 340.3667996 255.46376067 338.99287783 255.46914673 337.61895752 C255.48222666 333.89521724 255.48870801 330.17149496 255.49315739 326.44773531 C255.49609756 324.11416543 255.50020429 321.78060037 255.50466156 319.44703293 C255.51833 312.12569059 255.52799769 304.80435937 255.53186345 297.48300517 C255.53633123 289.07033899 255.55382208 280.65783634 255.58286405 272.24521983 C255.60459952 265.71920946 255.61457415 259.19324466 255.61590457 252.66719854 C255.61694491 248.78114669 255.62268513 244.89524867 255.64072418 241.00923538 C256.96066957 213.99234205 256.96066957 213.99234205 248.29296875 189.203125 C247.88433594 188.60371094 247.47570312 188.00429687 247.0546875 187.38671875 C241.25214865 179.81890047 232.44206645 175.3828891 223.29296875 173.203125 C218.88767543 172.77913089 214.50813651 172.78261055 210.08496094 172.79907227 C208.78779648 172.79220901 207.49063202 172.78534576 206.15415955 172.77827454 C202.61873574 172.7604334 199.08356137 172.76149489 195.54810619 172.76721692 C192.5838655 172.77032354 189.6196717 172.76419969 186.65543771 172.75817817 C179.65355235 172.74416273 172.65178906 172.74566784 165.64990234 172.75708008 C158.45791286 172.76854412 151.26629703 172.75450793 144.07435679 172.7276836 C137.8727231 172.70543008 131.67120585 172.69891124 125.46953511 172.70476002 C121.7775396 172.70810959 118.08578317 172.70585003 114.39382172 172.68850899 C110.26849742 172.66997621 106.14388535 172.68432543 102.01855469 172.70141602 C100.81708298 172.69174805 99.61561127 172.68208008 98.37773132 172.67211914 C83.63332485 172.79922441 73.15657907 176.78574107 63.671875 188.14453125 Z M166.421875 420.0859375 C159.44071012 428.68617554 157.69854493 437.77649199 157.77830505 448.60018921 C157.77135953 449.81308172 157.764414 451.02597423 157.757258 452.27562106 C157.74220449 455.61644086 157.74489703 458.9563626 157.75541103 462.2971406 C157.76243443 465.91008189 157.74638135 469.5229343 157.7334137 473.135849 C157.71182012 480.20385311 157.71188872 487.27169592 157.72003924 494.33972214 C157.7263507 500.08739428 157.72519172 505.83501953 157.71876717 511.58269119 C157.71786551 512.40215391 157.71696386 513.22161662 157.71603488 514.06591154 C157.71418359 515.73089644 157.71232103 517.39588132 157.71044732 519.06086619 C157.69388476 534.65904547 157.70257461 550.25713419 157.7194329 565.85530801 C157.73412556 580.10856893 157.71950487 594.36161895 157.69066273 608.61485271 C157.66123091 623.26925103 157.65030766 637.92355216 157.65984493 652.57797873 C157.66086743 654.2372949 157.66186204 655.89661108 157.66282845 657.55592728 C157.66330484 658.3722296 157.66378123 659.18853193 157.66427205 660.02957069 C157.66643135 665.76536076 157.65665789 671.50105829 157.64205742 677.23682785 C157.62449321 684.23420105 157.62470964 691.2313056 157.64740907 698.22866844 C157.65851495 701.79485831 157.66179798 705.36057559 157.64310837 708.92674446 C157.62306066 712.80210506 157.64217028 716.6767353 157.66477966 720.55209351 C157.65294393 721.66592986 157.64110821 722.7797662 157.62891382 723.92735517 C157.74832264 734.04270008 160.58206943 742.56672041 167.41796875 750.140625 C176.63950786 758.65162676 187.07285692 760.70734149 199.17578125 760.4765625 C208.59888818 760.04018753 216.73650915 755.92540946 223.29296875 749.203125 C231.32288536 738.32999757 232.44556928 727.7815905 232.42668152 714.69158936 C232.43007985 712.96079175 232.43007985 712.96079175 232.43354684 711.19502854 C232.43876964 708.00542449 232.43953385 704.81585603 232.43835247 701.62624907 C232.4381479 698.18099934 232.44367256 694.73575792 232.44841003 691.29051208 C232.45670523 684.5453289 232.45946437 677.80015446 232.46002241 671.0549666 C232.46049814 665.56990984 232.4625557 660.08485596 232.46572304 654.59980011 C232.47452674 639.03635744 232.47914289 623.47292166 232.47839256 607.90947649 C232.47833263 606.65176854 232.47833263 606.65176854 232.47827148 605.36865234 C232.47821016 604.10940226 232.47821016 604.10940226 232.4781476 602.82471278 C232.47774127 589.22377219 232.48730824 575.62285931 232.50140985 562.02192673 C232.51578702 548.04452665 232.52267929 534.06714007 232.52181607 520.08973241 C232.52148456 512.24735802 232.52421186 504.40501267 232.53499413 496.56264496 C232.5441168 489.88474937 232.54625991 483.20689599 232.5394847 476.52899686 C232.53622832 473.12510803 232.53613073 469.72130009 232.54483795 466.31741905 C232.55257134 462.61907265 232.54790391 458.92093717 232.54020691 455.22259521 C232.54535047 454.15827294 232.55049404 453.09395067 232.55579346 451.9973762 C232.50263114 440.39818512 231.18271898 429.08254638 223.38671875 419.9765625 C215.96768558 412.79945433 206.55707993 408.55536067 196.20703125 408.078125 C184.74605455 408.56974867 174.62244727 411.83400465 166.421875 420.0859375 Z M-40.03515625 511.24609375 C-48.24684399 519.83795222 -50.85710667 529.51275361 -50.85420227 541.15783691 C-50.85787896 541.95331295 -50.86155565 542.74878898 -50.86534375 543.56837034 C-50.87634744 546.23113369 -50.88021883 548.89385797 -50.8840332 551.55664062 C-50.89030048 553.46729658 -50.89694752 555.37795132 -50.90394592 557.28860474 C-50.9249617 563.56218623 -50.93534774 569.8357679 -50.9453125 576.109375 C-50.94936134 578.27257805 -50.9534783 580.43578097 -50.95766258 582.59898376 C-50.9767108 592.765666 -50.99094118 602.932341 -50.99927455 613.09903765 C-51.00903826 624.8159879 -51.03533679 636.53274879 -51.07577544 648.24963236 C-51.10599163 657.31737883 -51.12074875 666.38507121 -51.12405556 675.45286703 C-51.12640024 680.86301678 -51.1352845 686.27296417 -51.16051674 691.68305969 C-51.18389806 696.77864093 -51.18799038 701.87388802 -51.17775536 706.96950912 C-51.17726229 708.83140554 -51.1835146 710.69331897 -51.1973114 712.55516434 C-51.28658672 725.32563765 -51.08801398 738.19370032 -42.390625 748.49609375 C-34.11451532 756.88741609 -24.86544698 760.55693415 -13.14453125 760.703125 C-6.32631896 760.63275698 -0.72714702 759.58428591 5.29296875 756.203125 C6.32421875 755.64625 7.35546875 755.089375 8.41796875 754.515625 C16.47577664 748.03434474 22.31375005 740.7734483 23.52451897 730.17654991 C23.90547587 724.31929825 23.8377113 718.45251842 23.81054688 712.5859375 C23.8159746 710.61203497 23.8231009 708.63813649 23.83178711 706.66424561 C23.84994591 701.3295158 23.84298371 695.99509714 23.83027077 690.66036224 C23.82010445 685.06279191 23.82954651 679.46524723 23.83581543 673.86767578 C23.84308127 664.46967819 23.83353203 655.07180657 23.81445312 645.67382812 C23.79268651 634.82704383 23.79973863 623.98056035 23.82175875 613.13378334 C23.83994304 603.80095671 23.84245626 594.46822033 23.83200407 585.1353817 C23.8257858 579.5700424 23.82488756 574.00484424 23.83815002 568.43951416 C23.849752 563.20592501 23.8416035 557.97272161 23.818573 552.73917389 C23.81330909 550.82484831 23.81475969 548.91048996 23.82362366 546.99617767 C23.87608671 534.50944622 23.65708814 521.70428028 14.29296875 512.203125 C-1.62446833 498.79896746 -23.83654769 497.03154295 -40.03515625 511.24609375 Z M-251.08203125 537.578125 C-256.69821231 544.75347247 -258.82471626 551.40678321 -258.85420227 560.4503479 C-258.85787896 561.18174937 -258.86155565 561.91315083 -258.86534375 562.66671598 C-258.87636003 565.11847534 -258.88022095 567.57019228 -258.8840332 570.02197266 C-258.89029947 571.77971531 -258.89694642 573.53745664 -258.90394592 575.29519653 C-258.92497162 581.06918417 -258.93534784 586.84317202 -258.9453125 592.6171875 C-258.9493608 594.60679513 -258.95347775 596.59640263 -258.95766258 598.58600998 C-258.97671204 607.93523326 -258.99094283 617.28444866 -258.99927455 626.63368762 C-259.00904236 637.41567686 -259.03535105 648.19746055 -259.07577544 658.97937739 C-259.10596771 667.31924982 -259.12074644 675.65906345 -259.12405556 683.99898946 C-259.12640275 688.97702557 -259.13531993 693.95484203 -259.16051674 698.93281937 C-259.1838565 703.61964028 -259.188007 708.30609784 -259.17775536 712.99296188 C-259.1772613 714.70776328 -259.1835432 716.42258291 -259.1973114 718.1373291 C-259.29136504 730.55147946 -257.94456885 740.33960221 -249.734375 750.1640625 C-241.90646576 758.03721977 -231.69249843 760.85035336 -220.7890625 761.33203125 C-210.88919808 760.86060913 -201.55288401 756.94331163 -194.390625 750.09375 C-184.05252093 738.48437095 -184.55633483 724.92858306 -184.56176758 710.23120117 C-184.55877201 708.61242089 -184.55536856 706.99364132 -184.55158997 705.37486267 C-184.54278645 700.99456839 -184.5404134 696.61429366 -184.53977418 692.23399138 C-184.53906163 689.49273143 -184.53692342 686.75147639 -184.53427696 684.01021767 C-184.52503574 674.43381054 -184.52094056 664.8574173 -184.52172852 655.28100586 C-184.52232904 646.37534477 -184.51177907 637.4697443 -184.49598485 628.56409854 C-184.48288044 620.90013159 -184.47754583 613.23618438 -184.47818393 605.57220632 C-184.47843805 601.00283474 -184.47563415 596.43351708 -184.46500587 591.86415672 C-184.4552759 587.56393814 -184.45527908 583.2638245 -184.46252251 578.96360207 C-184.46356227 577.39274567 -184.46124196 575.82188257 -184.45516205 574.2510376 C-184.40740147 561.04765163 -184.39104729 547.28700804 -193.75390625 536.94140625 C-202.2441162 529.02208973 -210.62554563 525.95141071 -222.08203125 524.890625 C-233.1113846 525.84143132 -243.45482926 529.22633882 -251.08203125 537.578125 Z " fill="#010101" transform="translate(472.70703125,-0.203125)"/>
</svg>
